<svg xmlns="http://www.w3.org/2000/svg" width="64" height="64" viewBox="0 0 64 64"><path d="M31.305 21.48c-1.24-.44-10.948-2.635-16.787 2.414s-5.693 11.05-5.255 15.22 2.263 10.902 11.605 12.22c9.342 1.317 10.51-1.317 12.92-1.537s4.16 1.683 4.524 2.122c.365.437.584.803 2.628-.295s8.32-6.44 8.83-7.024.293-.66.22-1.9c-.073-1.245-.365-1.025-2.117-2.708-1.752-1.683-1.68-3.146-2.263-5.78-.584-2.635-.438-16.245-1.095-20.49C43.858 9.48 42.107 1.212 32.91.188S19.262 2.528 16.123 6.04s-4.306 8.707-4.306 8.707l.803 2.707c1.387.66 10.437 2.488 10.437 2.488s.51-4.317 2.117-5.415c1.606-1.098 4.67-1.902 7.445.585C35.39 17.6 33.93 22.65 33.93 22.65s-1.388-.733-2.628-1.17zm1.46-8.927c-3.87-2.195-7.227-1.976-9.416-.293s-2.265 4.61-2.85 4.537-6.933-2.34-7.444-2.707c0 0 2.846-6.585 6.13-9.22S25.83.48 33.422 1.797s9.343 7.683 9.562 10.098c.22 2.415.876 11.342.876 11.342s-1.752-3.22-1.97-3.146c-.22.075-.366.953-.366.953l2.263 3.512.073 2.05-2.263-2.708s-.584.95-.22 1.17c.366.22 2.483 3 2.556 3.294s.22 3.513.22 3.513L41.668 28.8s-.365.804-.22 1.243c.147.44 2.775 3 2.775 3.22s1.314 4.61.876 4.463c-.44-.146-2.776-3.66-2.776-3.66s-.584.88-.365 1.1c.22.22 3.283 4.17 3.575 4.462.292.293 2.774 2.634 2.774 2.634s-.366 1.317-.804 1.17c-.438-.145-2.92-3.804-3.138-3.658s-.585.66-.074 1.098c.51.44 2.482 2.927 2.41 3.146s-1.388.805-1.388.805-3.503-4.17-3.722-4.098c-.22.073-.803.44-.584.66s3.357 3.804 3.357 3.804l-1.023.876s-2.555-3.22-2.774-3.22c-.22 0-.803.366-.657.585.146.22 2.555 3.22 2.555 3.22s-.802.95-1.167.733c-.364-.22-2.773-3.146-2.773-3.146s-.73.293-.44.585c.293.293 2.848 3.073 2.63 3.073-.22 0-1.315.44-1.46.22-.147-.22-3.577-3.44-4.015-3.44s-1.24.88-3.722 1.684c-2.482.804-9.926 3.292-16.057.804s-4.963-12.66-4.306-16.17 5.547-8.928 12.554-9.294 10.073 1.977 10.803 1.977c.73 0 .803.585.876-.66.072-1.245 1.24-8.27-2.63-10.464h.005zm-15.328.073c-.292-.073 1.387-3.366 1.68-3.512s-.44-.732-.804-.732c-.365 0-3.12 4.442-2.847 4.683.584.512 3.065 1.463 3.65 1.463s.218-.66.218-.878-1.605-.95-1.897-1.024zm-1.022 31.17c-1.314-.95-1.898-4.023-1.898-4.023-1.387.146-1.168 1.244-1.168 1.537s.655 2.78 1.604 3.732c.95.95 4.306 1.902 4.744 1.756.437-.146.51-.95.364-1.39s-2.335-.66-3.65-1.61l.003-.002zm20.145-7.17c.51 0 .876-5.415.73-5.78-.146-.367-1.022.22-1.022.22-.22.804-.438 5.267-.22 5.56.22.293 0 0 .512 0zm-18.247-4.683c-.365 2.415-1.24 7.976 4.817 9.146 6.058 1.17 9.78-1.83 10.73-4.685s1.044-7.664.583-7.83c-11.386-4.097-15.765.952-16.13 3.368zm12.408 6.732c-3.063 1.902-7.88 1.317-9.632-.366-1.752-1.685-.382-6.09 3.065-6.734 3.138-.585 5.182-1.024 8.685 1.098 0 0 .95 4.097-2.116 6zm12.045 17.56c-3.138.88-9.707 1.245-18.247.586-8.54-.657-18.685-6.437-18.685-6.437-2.555 1.537.95 5.122 8.102 9.66s15.108 4.243 22.407 3.584 12.336-5.634 12.482-6.366c.146-.73.073-2.487-.365-2.706-.44-.22-2.556.805-5.694 1.683v-.002zm-2.117 3.367c-4.67 1.17-8.32 2.854-19.123.44-10.802-2.416-13.65-6.66-13.21-7.1.154-.154 9.268 5.782 21.238 5.562s15.327-1.39 15.327-1.39.438 1.317-4.232 2.488zm17.955-8.27c-.657-.877-8.977-3.22-9.707-3.292-.73-.073-1.24.878-1.533 2.122-.292 1.244.657 1.683 1.095 1.976.438.293 2.75 2.325 2.628 3.366-.146 1.244-1.68 5.195-1.898 5.634s.292 1.244.657 1.537 1.46.878 4.014-.585c2.554-1.463 3.21-3.073 4.232-5.05 1.023-1.975 1.17-4.83.512-5.707zm-3.358 6.294c-1.387 1.683-2.92 2.634-3.138 2.634s1.314-4.683 1.168-5.56c-.146-.88-3.284-4.1-3.94-4.245 0 0-.293-.95 1.167-.66 1.46.294 6.497 2.196 6.643 2.928.145.732-.512 3.22-1.9 4.903z" fill="#232021"/></svg>