<svg xmlns="http://www.w3.org/2000/svg" width="64" height="64" viewBox="0 0 64 64"><path d="M63.93 41.12c.068-3.195-.727-27.102-.866-29.266s-4.08-2.817-6.156-2.85-7.02.205-7.92.205c-.898 0-10.65-.07-17.463 0s-22.097.24-24.864.24-5.625.35-5.98.823c-1.42 1.89-.175 14.6-.175 23.255S.92 46.993 1.3 48.195s1.903 4.5 2.456 5.015 1.59.447 5.637.515c4.046.07 4.392.275 13.97.275s19.47-.31 27.91-.55 9.232-.378 11.273-1.786c2.04-1.408 1.314-7.35 1.383-10.545zm-1.49-11.646c-.242-.275-2.144-3.126-2.524-3.09-.38.033-.31.755-.242 1.098.07.343 2.628 3.09 2.628 3.297s.173 2.026.07 1.957c-.105-.07-2.007-3.572-2.456-3.366-.45.207-.45.997-.415 1.27.036.277 2.837 3.265 2.837 3.61s.137 2.094 0 1.75c-.14-.342-2.318-3.812-2.698-3.606s-.45.86-.278 1.237c.173.38 2.905 3.4 2.94 3.78.034.377.24 2.713.034 2.54-.208-.17-2.04-3.743-2.837-3.915-.796-.172-.9.447-.554.756.346.31 1.73 2.68 2.11 3.367.38.687 1.383 1.58 1.418 1.786.035.206.07 3.16-.138 3.023-.207-.137-1.695-3.675-2.628-4.774-.934-1.1-1.418-1.65-1.695-1.34s-.138.824.138 1.237c.278.41 2.87 4.533 3.08 4.876s.38.653.31.893-.415.55-.415.79-.105.31-.14.07c-.034-.24-3.25-5.086-3.803-5.876s-.622-.996-1.14-.756.034.96.206 1.2c.173.24 4.323 6.184 4.357 6.63.035.447-.52.962-.795.824s-4.22-6.595-4.807-7.454c-.588-.86-.83-.86-1.14-.48-.312.377.414 1.064.933 1.957.52.893 3.217 5.152 3.598 5.564.38.412.45.893.45.893s-1.14.378-1.383.172c-.24-.206-4.737-7.66-5.117-7.66s-.726.515-.622.687 4.808 7.007 4.358 7.04c-.45.035-1.59.24-1.867.035s-3.32-5.874-3.84-5.908-.793.823-.76.96c.036.138 3.425 4.74 3.183 4.913s-.968.412-1.383.103c-.415-.31-3.147-5.736-3.493-5.874-.345-.137-1.175.412-.967.618.207.207 3.562 5.462 3.078 5.462s-1.175.103-1.382-.172-3.078-4.98-3.39-5.084-.967.103-.794.515c.173.414 3.735 4.74 3.216 4.74s-1.97.31-2.18-.032-2.662-4.67-3.11-4.774c-.45-.103-.796.447-.727.687s2.698 4.088 2.387 4.123c-.312.034-1.592.103-1.834-.07-.242-.17-2.11-4.086-2.455-4.12-.345-.035-.864.446-.794.652s2.213 3.504 1.798 3.572c-.415.07-1.14.172-1.452-.07-.31-.24-2.317-3.64-2.697-3.71-.38-.068-1.107.24-.968.55.138.31 2.248 3.264 1.902 3.298s-1.626.172-1.8 0-2.35-2.988-2.558-3.09c-.208-.104-1.004.17-.796.377.207.207 2.18 2.543 1.764 2.61-.414.07-9.613.413-15.596.482-5.983.07-9.44.07-11.723-.275s-3.216-1.135-3.735-1.58c-.526-.443-.906-5.08-.975-10.027s-.414-16.383-.483-19.27-.31-6.388.104-7.144c.237-.43 2.665-.516 10.377-.86s15.493-.31 25.625-.41c10.134-.105 15.355-.277 18.018-.105 2.663.172 5.36.515 5.844 1.443.484.927.692 8.347.484 8.175s-1.245-1.408-1.487-1.134-.484.686-.277.926 1.833 1.546 1.867 1.89c.034.342.103 1.03 0 .823-.105-.207-1.21-1.58-1.523-1.27s-.553.822-.242 1.097c.31.275 1.833 1.958 1.902 2.336.07.378.035 1.237-.104.996-.138-.24-1.764-2.646-2.18-2.3-.414.34-.24 1.166-.172 1.34s2.49 2.265 2.49 2.437.315 2.406.073 2.13l-.003-.003zm-49.176-11.37c.795.757 7.055 5.806 11.447 9.103s5.603 3.64 8.785 3.572 5.014-1.41 7.92-3.09c2.904-1.685 10.996-9.585 12.034-10.994 1.037-1.408.38-1.58-.346-1.89-.726-.308-3.562-.308-13.625-.102s-21.72.31-23.966.343-3.827.316-3.977.55c-.485.756.933 1.752 1.728 2.508zm19.78.31c7.54.034 16.15-.343 16.462 0 .31.343-5.5 5.84-9.06 7.97s-5.188 3.193-8.37 2.747c-3.182-.446-9.164-5.53-11.447-7.212s-3.666-2.886-3.56-3.127c.076-.18 8.437-.41 15.976-.377h-.002zm24.07-.962c-.934-.172-4.115 3.847-6.12 6.354s-4.136 5.16-4.185 5.324c-.207.688.484.825 2.49 2.577 2.004 1.752 4.496 5.324 5.5 6.56s1.624 1.512 2.35.997c.727-.515.554-1.065.658-3.435.103-2.37.24-10.684.414-14.05.172-3.366-.174-4.156-1.108-4.328zm-.69 20.025c-.347-.206-3.286-4.328-3.978-4.946s-1.867-1.545-1.97-1.99c-.063-.27 6.05-7.523 6.258-7.283s.035 14.426-.31 14.22zm-9.027-1.958c-1.488-1.82-2.49-3.573-3.598-3.54-1.108.035-3.148 1.306-4.877 2.474-1.73 1.168-3.285 1.855-4.842 1.855s-5.152-1.856-5.636-2.234c-.484-.378-3.023-1.183-3.597-1.1-1.176.173-7.262 8.142-7.816 8.83-.552.686.76 1.923 1.59 2.026s3.114 0 14.04-.447c10.93-.447 16.186-.824 17.155-1.03.968-.206 1.003-1.065.795-1.717s-1.727-3.3-3.214-5.12zm1.555 5.46c-.207.207-7.746.825-17.187 1.203s-10.997.24-10.893.07 4.945-5.67 5.43-5.737c.307-.044 5.36 2.404 7.607 2.473s4.84-.894 7.02-2.474c2.18-1.58 3.353-2.404 3.7-2.37s3.146 3.916 3.77 5.015c.62 1.1.76 1.615.552 1.82zm-32.23-15.25c-2.25-2.164-7.8-6.88-8.404-6.87-2.627.034-1.832 4.053-1.66 9.274.174 5.22.97 11.92 1.384 13.705.415 1.785 1.73 1.82 2.8 1.545s1.903-1.683 4.013-4.328 5.187-6.904 5.464-8.76-1.35-2.403-3.598-4.566zM12.4 40.054c-.934 1.134-.83 1.168-1.072 1.134-.242-.034 0-10.408-.104-12.33-.104-1.925-.31-4.088-.138-4.466.115-.25 3.25 2.44 4.945 3.848s2.595 2.197 2.664 2.54c.07.344-5.36 8.14-6.294 9.275zm22.547-8.07c-1.696.274-3.502-.295-3.943-.38-.726-.136-.865.757-.415 1.17.45.41 1.417.686 3.976.652 2.558-.034 4.287-1.03 4.564-1.477.277-.448-.138-1.1-.622-1.17s-1.868.928-3.563 1.203l.002.003zM6.28 47.095c-.38-.343 0-2.645-.206-3.023-.207-.378-1.192-.356-1.35 0-.24.55-.172 2.336.105 3.297s1 1.545 1.97 1.407.933-1.065.83-1.305-.97-.034-1.35-.377zm-1.45-31.91c.207-.823 1.556-.79 1.937-.995.38-.206.45-.137.38-.584s-.52-.927-1.902-.687-2.075 1.475-2.04 2.54c.035 1.065-.048 3.354.277 3.54.484.273 1.037.273 1.245.032.207-.24-.104-3.023.103-3.846zm55.16-1.064c.24-.307.414-.55-.45-1.82s-2.78-1.622-3.113-1.44c-1.072.583-.484 1.785.52 1.82 1.002.033 1.486 1.27 1.832 1.682s.967.07 1.21-.24z"/></svg>