<svg xmlns="http://www.w3.org/2000/svg" width="64" height="64" viewBox="0 0 64 64"><path d="M61.46 10.85C60.528 3.59 57.96.688 49.666.397 41.373.107 22.92-.3 11.766.34.615.977 1.783 7.89 1.783 9.98c0 0-.76 25.492-.76 30.138S.732 47.493 2.25 52.72s4.32 10.627 10.92 10.975c6.598.348 34.277.523 40.934-.174s7.358-6.04 8.467-11.44c1.11-5.4-.173-33.97-1.11-41.23zm-1.517 18.234c.117.348.058 1.86.058 1.86s-3.034-3.02-3.443-2.614c-.41.406-.234 1.22-.234 1.22s3.62 2.38 3.62 2.67-.116 1.626-.116 1.626-2.86-2.38-3.036-2.323c-.174.058-.41.813-.35 1.045.06.232 3.563 2.265 3.563 2.613v3.196s-2.978-2.962-3.212-3.02c-.233-.058-.35 1.22-.35 1.22s3.27 2.845 3.388 3.193.117 2.264.117 2.264-3.037-2.903-3.212-2.903-.35 1.395-.35 1.395 3.153 2.67 3.33 3.078c.174.407.116 2.555.116 2.555s-3.096-2.497-3.27-2.44c-.176.06-.118 1.51.057 1.685.175.174 3.27 2.265 3.33 2.555.057.29-.118 2.555-.118 2.555s-2.804-2.497-3.037-2.497c-.234 0-.35 1.045-.35 1.045s3.387 2.904 3.387 3.08-.643 1.625-.643 1.625-3.095-3.078-3.33-3.136c-.233-.06-.758.522-.758.696s3.21 3.136 3.035 3.426c-.175.29-.35.93-.584.93s-3.035-2.67-3.21-2.67c-.176 0-.82.986-.82.986s2.92 2.613 2.746 2.73c-.175.116-1.46.697-1.46.697s-2.57-2.265-2.803-2.265-.76.755-.76.755l2.162 2.09s-1.46.466-1.693.408c-.234-.057-2.277-1.74-2.686-1.915-.41-.174-1.518.348-1.518.348s2.1 1.742 1.81 1.916c-.293.173-12.848.58-20.322.463-7.475-.116-17.752-.348-20.38-1.626s-5.43-4.53-5.723-11.15C2.6 39.826 3.3 13.58 3.3 13.58c-.058-2.033-.117-7.434 1.81-9.234s5.84-2.613 13.08-2.67c7.24-.06 25.81.29 31.3.463s8.526 2.03 9.168 5.05S60 22.87 59.826 22.812c-.175-.058-2.92-2.207-3.153-2.207-.234 0-.584 1.22-.35 1.336.234.117 3.387 2.382 3.562 2.788.175.407.175 2.613.175 2.613s-3.037-3.077-3.27-2.96c-.234.115-.234 1.567-.234 1.567s3.27 2.79 3.387 3.137v-.003zm-5.197-10.336c.058-4.297-.41-8.13-3.036-10.163-2.628-2.032-21.49-1.393-27.33-1.277s-11.51.166-13.255 1.684c-.467.406-1.46 1.16-1.635 3.426-.175 2.265-1.226 31.3-.76 35.83s2.278 5.285 6.25 5.4c3.97.117 28.788.64 32.875.408 4.088-.232 5.14-1.742 6.19-4.588s.642-26.423.7-30.72zM52.41 48.77c-.7 1.743-1.577 3.137-5.022 3.427-3.445.29-23.942 0-28.905-.174-4.964-.174-6.248-1.162-6.248-1.162s.175-22.355.35-28.162-.234-10.453.584-10.917c.912-.52 6.83-.986 18.276-1.102 11.445-.116 18.22.232 19.212.64.992.406 2.335 2.032 2.335 9.407 0 7.373.116 26.304-.585 28.047l.002-.002zm-6.13-36.7c-5.373.813-4.03 5.98-2.162 7.2 1.87 1.22 6.423 1.395 6.89-2.264.468-3.66-1.776-5.383-4.73-4.936h.002zm2.977 3.542c-.292 1.974-2.102 2.207-3.27 2.032-1.168-.174-3.68-3.368.584-4.47 1.033-.268 2.98.464 2.687 2.438zm-20.555.232C9.665 19.154 13.986 37.97 17.724 43.02c3.737 5.053 14.716 4.82 20.73 2.266 6.015-2.555 10.102-8.304 7.358-18.93-2.745-10.628-12.643-11.288-17.11-10.512zM40.848 41.57c-5.606 4.007-13.84 4.355-17.752 2.44s-7.767-6.215-6.89-13.3c.875-7.084 5.488-12.484 12.612-13.24 4.01-.424 11.562 0 14.132 6.33s3.504 13.763-2.102 17.77zM28.702 21.36c-9.05 2.266-9.285 7.724-8.526 13.53.76 5.808 10.92 7.086 16.292 4.763s7.183-6.04 5.723-11.556-8.2-8.06-13.488-6.737zm4.263 17.54c-5.256.58-8.993-.465-10.278-3.485s.467-8.304 7.007-9.93c4.015-.998 9.518.523 10.86 4.646 1.345 4.124-2.334 8.19-7.59 8.77z"/></svg>