<?xml version="1.0" encoding="utf-8"?>
<!-- Generator: Adobe Illustrator 22.0.1, SVG Export Plug-In . SVG Version: 6.00 Build 0)  -->
<svg version="1.1" id="Layer_1" xmlns="http://www.w3.org/2000/svg" xmlns:xlink="http://www.w3.org/1999/xlink" x="0px" y="0px"
	 width="67.8px" height="74.6px" viewBox="0 0 67.8 74.6" style="enable-background:new 0 0 67.8 74.6;" xml:space="preserve">
<style type="text/css">
	.st0{fill:#FFFFFF;}
	.st1{stroke:#000000;stroke-width:0.61;}
	.st2{fill:#EEB310;}
</style>
<polygon class="st0" points="21,7 46.5,5.7 44.6,74.5 19.5,63.5 "/>
<g>
	<polygon points="9.5,63.6 19.5,63.5 44.6,74.5 	"/>
	<polygon class="st1" points="19.5,63.5 0,63.3 4.6,2.3 20.8,1.7 	"/>
	<polygon class="st2" points="51.2,63.7 44.6,74.5 46.5,7.7 52,7.9 	"/>
	<polygon points="46.5,7.9 46.5,5.7 19.9,7 20.5,3.9 64.9,2.5 68.1,63.7 51.1,63.7 52,7.9 	"/>
	<path d="M43.5,41.2c0,0.7-0.7,1.3-1.5,1.3c-0.8,0-1.5-0.6-1.5-1.3c0-0.7,0.7-1.3,1.5-1.3C42.8,39.9,43.5,40.5,43.5,41.2z"/>
</g>
<polygon class="st2" points="51.1,63.7 44.6,74.5 63.5,69 "/>
<polygon class="st2" points="23.5,11.2 43.4,11.4 42.1,38 23,32.7 "/>
<polygon class="st0" points="32.8,9 31.4,36.9 32.7,37.4 33.4,9 "/>
<polygon class="st0" points="21.4,20.9 43.1,26 43.7,25.1 21.9,20.6 "/>
</svg>
